<svg width="17" height="16" viewBox="0 0 17 16" fill="none" xmlns="http://www.w3.org/2000/svg">
<path d="M4.45547 10.8571C4.45547 10.5417 4.3194 10.2723 4.04726 10.0491C3.77512 9.82589 3.44673 9.71429 3.06211 9.71429C2.67748 9.71429 2.3491 9.82589 2.07696 10.0491C1.80482 10.2723 1.66875 10.5417 1.66875 10.8571C1.66875 11.1726 1.80482 11.442 2.07696 11.6652C2.3491 11.8884 2.67748 12 3.06211 12C3.44673 12 3.77512 11.8884 4.04726 11.6652C4.3194 11.442 4.45547 11.1726 4.45547 10.8571ZM15.6023 10.8571C15.6023 10.5417 15.4663 10.2723 15.1941 10.0491C14.922 9.82589 14.5936 9.71429 14.209 9.71429C13.8244 9.71429 13.496 9.82589 13.2238 10.0491C12.9517 10.2723 12.8156 10.5417 12.8156 10.8571C12.8156 11.1726 12.9517 11.442 13.2238 11.6652C13.496 11.8884 13.8244 12 14.209 12C14.5936 12 14.922 11.8884 15.1941 11.6652C15.4663 11.442 15.6023 11.1726 15.6023 10.8571ZM15.1016 7.32143L14.3178 3.89286C14.2815 3.75595 14.1999 3.64435 14.0729 3.55804C13.9459 3.47173 13.799 3.42857 13.632 3.42857H3.63905C3.47213 3.42857 3.32518 3.47173 3.19818 3.55804C3.07118 3.64435 2.98954 3.75595 2.95325 3.89286L2.16949 7.32143C2.1332 7.5 2.184 7.65774 2.32189 7.79464C2.45977 7.93155 2.63757 8 2.85528 8H14.4158C14.6335 8 14.8113 7.93155 14.9492 7.79464C15.0871 7.65774 15.1379 7.5 15.1016 7.32143ZM12.6415 1.85714C12.6415 1.7381 12.5907 1.6369 12.4891 1.55357C12.3875 1.47024 12.2641 1.42857 12.1189 1.42857H5.15215C5.007 1.42857 4.88363 1.47024 4.78204 1.55357C4.68044 1.6369 4.62964 1.7381 4.62964 1.85714C4.62964 1.97619 4.68044 2.07738 4.78204 2.16071C4.88363 2.24405 5.007 2.28571 5.15215 2.28571H12.1189C12.2641 2.28571 12.3875 2.24405 12.4891 2.16071C12.5907 2.07738 12.6415 1.97619 12.6415 1.85714ZM16.9957 8.33036V13.7143H15.6023V14.8571C15.6023 15.1726 15.4663 15.442 15.1941 15.6652C14.922 15.8884 14.5936 16 14.209 16C13.8244 16 13.496 15.8884 13.2238 15.6652C12.9517 15.442 12.8156 15.1726 12.8156 14.8571V13.7143H4.45547V14.8571C4.45547 15.1726 4.3194 15.442 4.04726 15.6652C3.77512 15.8884 3.44673 16 3.06211 16C2.67748 16 2.3491 15.8884 2.07696 15.6652C1.80482 15.442 1.66875 15.1726 1.66875 14.8571V13.7143H0.275391V8.33036C0.275391 7.66369 0.366104 7 0.547531 6.33929L1.66875 2.28571C1.73406 1.82143 2.08785 1.41369 2.7301 1.0625C3.37235 0.71131 4.20691 0.446429 5.23379 0.267857C6.26067 0.0892857 7.39458 0 8.63554 0C9.8765 0 11.0104 0.0892857 12.0373 0.267857C13.0642 0.446429 13.8987 0.71131 14.541 1.0625C15.1832 1.41369 15.537 1.82143 15.6023 2.28571L16.7453 6.33929C16.9122 6.94643 16.9957 7.61012 16.9957 8.33036Z" fill="#1D2E5B"/>
</svg>
