<svg style="display: none">
  <symbol viewBox="0 0 23 22" xmlns="http://www.w3.org/2000/svg" id="avia">
    <path d="M18.5347 1.18042C17.7301 1.36085 16.9218 1.54212 16.6212 2.03885L14.2941 6.4124L1.79919 9.21454L1.29295 10.612L10.8544 11.4648L9.23212 15.251L5.60602 16.0642L4.69562 17.5523L7.31158 17.8202L7.60988 19.0372C7.74352 19.4686 8.21259 19.7566 8.61297 19.6668L9.82168 19.3958L11.2228 21.6493L12.1332 20.1613L11.2383 16.5103L13.8637 13.3537L18.8731 21.6469L19.8832 20.5657L16.8005 7.98882L19.6314 3.93156C19.9358 3.43399 19.7373 2.62393 19.5378 1.81006C19.439 1.40693 18.9351 1.09063 18.5347 1.18042Z"/>
  </symbol>
  <symbol viewBox="0 0 18 20" xmlns="http://www.w3.org/2000/svg" id="bus">
    <path  d="M4.50099 13.5714C4.50099 13.1771 4.35457 12.8404 4.06172 12.5614C3.76888 12.2824 3.41551 12.1429 3.00162 12.1429C2.58773 12.1429 2.23436 12.2824 1.94151 12.5614C1.64867 12.8404 1.50224 13.1771 1.50224 13.5714C1.50224 13.9658 1.64867 14.3025 1.94151 14.5815C2.23436 14.8605 2.58773 15 3.00162 15C3.41551 15 3.76888 14.8605 4.06172 14.5815C4.35457 14.3025 4.50099 13.9658 4.50099 13.5714ZM16.496 13.5714C16.496 13.1771 16.3496 12.8404 16.0567 12.5614C15.7639 12.2824 15.4105 12.1429 14.9966 12.1429C14.5827 12.1429 14.2294 12.2824 13.9365 12.5614C13.6437 12.8404 13.4972 13.1771 13.4972 13.5714C13.4972 13.9658 13.6437 14.3025 13.9365 14.5815C14.2294 14.8605 14.5827 15 14.9966 15C15.4105 15 15.7639 14.8605 16.0567 14.5815C16.3496 14.3025 16.496 13.9658 16.496 13.5714ZM15.9572 9.15179L15.1138 4.86607C15.0747 4.69494 14.9869 4.55543 14.8502 4.44754C14.7135 4.33966 14.5554 4.28571 14.3758 4.28571H3.62245C3.44284 4.28571 3.2847 4.33966 3.14804 4.44754C3.01138 4.55543 2.92353 4.69494 2.88448 4.86607L2.04108 9.15179C2.00204 9.375 2.0567 9.57217 2.20508 9.7433C2.35345 9.91443 2.54478 10 2.77906 10H15.2192C15.4535 10 15.6448 9.91443 15.7932 9.7433C15.9415 9.57217 15.9962 9.375 15.9572 9.15179ZM13.3098 2.32143C13.3098 2.17262 13.2552 2.04613 13.1458 1.94196C13.0365 1.8378 12.9037 1.78571 12.7476 1.78571H5.25068C5.0945 1.78571 4.96174 1.8378 4.85241 1.94196C4.74308 2.04613 4.68842 2.17262 4.68842 2.32143C4.68842 2.47024 4.74308 2.59673 4.85241 2.70089C4.96174 2.80506 5.0945 2.85714 5.25068 2.85714H12.7476C12.9037 2.85714 13.0365 2.80506 13.1458 2.70089C13.2552 2.59673 13.3098 2.47024 13.3098 2.32143ZM17.9954 10.4129V17.1429H16.496V18.5714C16.496 18.9658 16.3496 19.3025 16.0567 19.5815C15.7639 19.8605 15.4105 20 14.9966 20C14.5827 20 14.2294 19.8605 13.9365 19.5815C13.6437 19.3025 13.4972 18.9658 13.4972 18.5714V17.1429H4.50099V18.5714C4.50099 18.9658 4.35457 19.3025 4.06172 19.5815C3.76888 19.8605 3.41551 20 3.00162 20C2.58773 20 2.23436 19.8605 1.94151 19.5815C1.64867 19.3025 1.50224 18.9658 1.50224 18.5714V17.1429H0.00286865V10.4129C0.00286865 9.57961 0.100484 8.75 0.295715 7.92411L1.50224 2.85714C1.57253 2.27679 1.95323 1.76711 2.64435 1.32812C3.33546 0.889137 4.23353 0.558036 5.33854 0.334821C6.44354 0.111607 7.66374 0 8.99912 0C10.3345 0 11.5547 0.111607 12.6597 0.334821C13.7647 0.558036 14.6628 0.889137 15.3539 1.32812C16.045 1.76711 16.4257 2.27679 16.496 2.85714L17.726 7.92411C17.9056 8.68304 17.9954 9.51265 17.9954 10.4129Z"/>
  </symbol>
  <symbol viewBox="0 0 25 25" xmlns="http://www.w3.org/2000/svg" id="bike">
    <path d="M18.9453 21.875C18.0568 21.875 17.1883 21.6115 16.4496 21.1179C15.7109 20.6243 15.1351 19.9227 14.7951 19.1019C14.4551 18.2811 14.3661 17.3778 14.5394 16.5064C14.7128 15.635 15.1406 14.8346 15.7689 14.2064C16.3971 13.5781 17.1975 13.1503 18.0689 12.9769C18.9403 12.8036 19.8436 12.8926 20.6644 13.2326C21.4852 13.5726 22.1868 14.1484 22.6804 14.8871C23.174 15.6258 23.4375 16.4943 23.4375 17.3828C23.4362 18.5738 22.9625 19.7157 22.1203 20.5578C21.2782 21.4 20.1363 21.8737 18.9453 21.875V21.875ZM18.9453 14.4531C18.3659 14.4531 17.7995 14.6249 17.3177 14.9469C16.8359 15.2688 16.4604 15.7263 16.2386 16.2617C16.0169 16.797 15.9589 17.3861 16.0719 17.9544C16.185 18.5227 16.464 19.0447 16.8737 19.4544C17.2834 19.8641 17.8055 20.1432 18.3738 20.2562C18.9421 20.3692 19.5311 20.3112 20.0665 20.0895C20.6018 19.8678 21.0593 19.4922 21.3813 19.0105C21.7032 18.5287 21.875 17.9623 21.875 17.3828C21.8741 16.6061 21.5651 15.8614 21.0159 15.3122C20.4667 14.763 19.722 14.454 18.9453 14.4531V14.4531Z"/>
    <path d="M6.05469 21.875C5.16622 21.875 4.2977 21.6115 3.55896 21.1179C2.82023 20.6243 2.24445 19.9227 1.90445 19.1019C1.56445 18.2811 1.47549 17.3778 1.64882 16.5064C1.82215 15.635 2.24999 14.8346 2.87823 14.2064C3.50648 13.5781 4.30691 13.1503 5.17831 12.9769C6.04971 12.8036 6.95294 12.8926 7.77378 13.2326C8.59462 13.5726 9.2962 14.1484 9.78981 14.8871C10.2834 15.6258 10.5469 16.4943 10.5469 17.3828C10.5456 18.5738 10.0719 19.7157 9.22972 20.5578C8.38755 21.4 7.24569 21.8737 6.05469 21.875V21.875ZM6.05469 14.4531C5.47525 14.4531 4.90883 14.6249 4.42704 14.9469C3.94526 15.2688 3.56975 15.7263 3.34801 16.2617C3.12627 16.797 3.06825 17.3861 3.1813 17.9544C3.29434 18.5227 3.57336 19.0447 3.98309 19.4544C4.39281 19.8641 4.91483 20.1432 5.48314 20.2562C6.05144 20.3692 6.6405 20.3112 7.17583 20.0895C7.71116 19.8678 8.16872 19.4922 8.49064 19.0105C8.81255 18.5287 8.98438 17.9623 8.98438 17.3828C8.98347 16.6061 8.67452 15.8614 8.12529 15.3122C7.57607 14.763 6.83141 14.454 6.05469 14.4531V14.4531Z"/>
    <path d="M15.625 6.25005C15.8308 6.25076 16.0347 6.21067 16.2249 6.1321C16.4151 6.05352 16.5879 5.93802 16.7332 5.79227C16.8785 5.64651 16.9934 5.47341 17.0714 5.28295C17.1494 5.09249 17.1889 4.88847 17.1875 4.68267C17.1898 4.4779 17.1512 4.27473 17.0741 4.08504C16.9969 3.89535 16.8827 3.72295 16.7381 3.57792C16.5935 3.43289 16.4215 3.31814 16.232 3.24038C16.0426 3.16262 15.8395 3.12341 15.6348 3.12505C15.4296 3.12441 15.2263 3.16419 15.0365 3.24212C14.8466 3.32005 14.674 3.4346 14.5285 3.57924C14.3829 3.72388 14.2673 3.89577 14.1882 4.0851C14.1091 4.27442 14.068 4.47748 14.0674 4.68267C14.0667 4.88786 14.1065 5.09116 14.1845 5.28098C14.2624 5.4708 14.3769 5.64341 14.5216 5.78895C14.6662 5.9345 14.8381 6.05013 15.0274 6.12924C15.2168 6.20836 15.4198 6.24941 15.625 6.25005V6.25005Z"/>
    <path d="M17.9468 9.37529H15.8101C15.775 9.3753 15.7406 9.36587 15.7104 9.348C15.6803 9.33013 15.6555 9.30448 15.6387 9.27373L14.0889 6.43339C13.9797 6.22232 13.8223 6.03991 13.6295 5.90096C13.4367 5.762 13.2139 5.67039 12.9791 5.63354C12.7444 5.59669 12.5042 5.61564 12.2781 5.68886C12.052 5.76208 11.8463 5.8875 11.6777 6.05498L8.2666 9.49248C7.98003 9.78497 7.81736 10.1768 7.8125 10.5862C7.8125 11.4358 8.42773 11.7386 8.71582 11.9095C10.1074 12.7112 11.0874 13.2977 11.625 13.6233C11.6536 13.6407 11.6772 13.6652 11.6936 13.6943C11.71 13.7235 11.7187 13.7564 11.7188 13.7898V17.1648C11.7188 17.5853 12.042 17.9461 12.4624 17.9671C12.568 17.9722 12.6734 17.9558 12.7725 17.9189C12.8715 17.8821 12.962 17.8255 13.0386 17.7527C13.1151 17.6798 13.1761 17.5922 13.2178 17.4951C13.2595 17.398 13.2811 17.2935 13.2813 17.1878V12.9886C13.2813 12.8645 13.2519 12.7423 13.1953 12.6319C13.1388 12.5215 13.0568 12.4262 12.9561 12.3538L11.1494 11.0545C11.1267 11.0383 11.1078 11.0174 11.0939 10.9932C11.0799 10.9691 11.0713 10.9422 11.0687 10.9144C11.066 10.8867 11.0693 10.8587 11.0783 10.8323C11.0874 10.8059 11.1019 10.7818 11.1211 10.7615L13.1719 8.57451C13.1929 8.55201 13.219 8.5348 13.2479 8.52428C13.2768 8.51377 13.3079 8.51025 13.3384 8.51401C13.369 8.51777 13.3982 8.52871 13.4238 8.54593C13.4493 8.56314 13.4704 8.58615 13.4854 8.61308L14.5508 10.5359C14.6185 10.6578 14.7176 10.7594 14.8378 10.83C14.958 10.9007 15.0949 10.9379 15.2344 10.9378H17.9688C18.0746 10.9379 18.1793 10.9165 18.2767 10.8749C18.374 10.8333 18.4618 10.7724 18.5349 10.6958C18.608 10.6193 18.6647 10.5286 18.7017 10.4295C18.7387 10.3303 18.7551 10.2247 18.75 10.1189C18.7295 9.69853 18.3672 9.37529 17.9468 9.37529Z"/>
  </symbol>
  <symbol viewBox="0 0 22 24" xmlns="http://www.w3.org/2000/svg" id="foot">
    <path d="M15.4545 6C16.4587 6 17.2727 5.10457 17.2727 4C17.2727 2.89543 16.4587 2 15.4545 2C14.4504 2 13.6364 2.89543 13.6364 4C13.6364 5.10457 14.4504 6 15.4545 6Z"/>
    <path d="M14.3428 10.969C14.5514 11.311 14.8508 11.5742 15.2001 11.7227C15.5495 11.8712 15.9319 11.8978 16.2955 11.799L19.31 10.97L18.8709 9.02997L15.8564 9.85897L14.6027 7.79197C14.3349 7.35053 13.9192 7.04354 13.4464 6.93797L9.95002 6.16797C9.55888 6.08162 9.15277 6.13933 8.79441 6.33217C8.43606 6.52502 8.14539 6.84229 7.9673 7.23497L6.46002 10.551L8.08639 11.446L9.59366 8.12897L11.3818 8.52297L6.7582 17H2.72729V19H6.7582C7.39275 19 7.99002 18.628 8.3173 18.029L10.0609 14.833L14.76 15.867L16.4109 21.316L18.1346 20.683L16.4846 15.235C16.3827 14.9005 16.2026 14.6014 15.9622 14.3679C15.7219 14.1345 15.4298 13.9748 15.1155 13.905L12.3527 13.298L13.9637 10.344L14.3428 10.969Z"/>
  </symbol>
  <symbol viewBox="0 0 32 30" xmlns="http://www.w3.org/2000/svg" id="phone">
    <path fill-rule="evenodd" clip-rule="evenodd" d="M16 0.172363C10.4071 0.172363 4.80078 1.1177 2.76656 3.00191C1.07881 4.56509 0.516199 7.32664 0.326551 9.07513C0.326551 9.07513 0.300415 9.24791 0.300415 9.32224C0.300415 10.0079 0.889015 10.5578 1.60866 10.5578C1.69369 10.5578 4.84016 10.3168 6.73714 10.1686C6.78279 10.1623 6.8288 10.1562 6.87445 10.1439C7.58099 10.1255 8.15022 9.58166 8.15022 8.90832L8.15655 6.47406C8.15655 5.72035 8.80441 5.11481 9.60253 5.11481H22.3974C23.1957 5.11481 23.8436 5.72028 23.8436 6.47406L23.85 8.90832C23.85 9.58166 24.4192 10.1255 25.1257 10.1439C25.171 10.1563 25.217 10.1623 25.2632 10.1686C27.1603 10.3167 30.3067 10.5578 30.3915 10.5578C31.1108 10.5578 31.6998 10.0079 31.6998 9.32224C31.6998 9.24791 31.6737 9.07513 31.6737 9.07513C31.4839 7.32664 30.922 4.56516 29.2341 3.00191C27.1993 1.1177 21.5929 0.172363 16 0.172363ZM16 16.2355C14.5543 16.2355 13.3834 17.3413 13.3834 18.7067C13.3834 20.0721 14.5543 21.1778 16 21.1778C17.4457 21.1778 18.6166 20.0721 18.6166 18.7067C18.6166 17.3413 17.4457 16.2355 16 16.2355ZM14.0376 10.6751V9.13061C14.0376 8.2781 13.3048 7.58613 12.4023 7.58613C11.4997 7.58613 10.7669 8.27817 10.7669 9.13061V10.6751L1.94202 19.5779C1.3339 20.1402 0.954391 20.9245 0.954391 21.7897V24.2671C0.954391 25.6325 2.1254 26.7383 3.57102 26.7383H4.22521V28.2829C4.22521 29.1354 4.95802 29.8273 5.86062 29.8273C6.76321 29.8273 7.49595 29.1354 7.49595 28.2829V26.7383H24.5041V28.2829C24.5041 29.1354 25.2366 29.8273 26.1396 29.8273C27.0422 29.8273 27.7748 29.1354 27.7748 28.2829V26.7383H28.4289C29.8746 26.7383 31.0455 25.6325 31.0455 24.2671V21.7897C31.0455 20.9245 30.6661 20.1401 30.0579 19.5779L21.2333 10.6751V9.13061C21.2333 8.2781 20.5005 7.58613 19.5979 7.58613C18.6953 7.58613 17.9626 8.27817 17.9626 9.13061V10.6751H14.0376ZM16 13.7643C18.8914 13.7643 21.2333 15.976 21.2333 18.7067C21.2333 21.4375 18.8915 23.6494 16 23.6494C13.1086 23.6494 10.7668 21.4375 10.7668 18.7067C10.7668 15.976 13.1086 13.7643 16 13.7643Z"/>
  </symbol>
  <symbol viewBox="0 0 19 13" xmlns="http://www.w3.org/2000/svg" id="email">
    <path fill-rule="evenodd" clip-rule="evenodd" d="M16.1393 10.4663L11.8089 6.5L16.1393 2.53365L15.5488 1.90264L9.24997 7.67188L2.95117 1.90264L2.36066 2.53365L6.69108 6.5L2.36066 10.4663L2.95117 11.0974L7.33081 7.08594L9.24997 8.84375L11.1691 7.08594L15.5488 11.0974L16.1393 10.4663ZM1.57593 0.25C0.76692 0.25 0.111084 0.948839 0.111084 1.80786V11.1921C0.111084 12.0525 0.7616 12.75 1.57593 12.75H16.924C17.733 12.75 18.3889 12.0512 18.3889 11.1921V1.80786C18.3889 0.947478 17.7383 0.25 16.924 0.25H1.57593Z"/>
  </symbol>
  <symbol viewBox="0 0 20 2" xmlns="http://www.w3.org/2000/svg" id="minus">
    <line y1="1" x2="20" y2="1" stroke-width="2"/>
  </symbol>
  <symbol width="20" height="20" viewBox="0 0 20 20" xmlns="http://www.w3.org/2000/svg" id="plus">
    <line y1="10" x2="20" y2="10" stroke-width="2"/>
    <line x1="10" y1="20" x2="10" stroke-width="2"/>
  </symbol>

</svg>
