<svg width="18" height="21" viewBox="0 0 18 21" xmlns="http://www.w3.org/2000/svg">
<path d="M4.26087 13.9485C4.26087 13.5699 4.12226 13.2467 3.84503 12.9788C3.5678 12.711 3.23329 12.5771 2.84147 12.5771C2.44966 12.5771 2.11514 12.711 1.83792 12.9788C1.56069 13.2467 1.42208 13.5699 1.42208 13.9485C1.42208 14.3271 1.56069 14.6503 1.83792 14.9181C2.11514 15.186 2.44966 15.3199 2.84147 15.3199C3.23329 15.3199 3.5678 15.186 3.84503 14.9181C4.12226 14.6503 4.26087 14.3271 4.26087 13.9485ZM15.616 13.9485C15.616 13.5699 15.4774 13.2467 15.2002 12.9788C14.923 12.711 14.5884 12.5771 14.1966 12.5771C13.8048 12.5771 13.4703 12.711 13.1931 12.9788C12.9158 13.2467 12.7772 13.5699 12.7772 13.9485C12.7772 14.3271 12.9158 14.6503 13.1931 14.9181C13.4703 15.186 13.8048 15.3199 14.1966 15.3199C14.5884 15.3199 14.923 15.186 15.2002 14.9181C15.4774 14.6503 15.616 14.3271 15.616 13.9485ZM15.1059 9.70563L14.3075 5.59135C14.2706 5.42706 14.1874 5.29313 14.058 5.18956C13.9286 5.08599 13.7789 5.0342 13.6089 5.0342H3.42919C3.25916 5.0342 3.10946 5.08599 2.98009 5.18956C2.85071 5.29313 2.76755 5.42706 2.73058 5.59135L1.93217 9.70563C1.89521 9.91992 1.94696 10.1092 2.08742 10.2735C2.22788 10.4378 2.409 10.5199 2.63078 10.5199H14.4073C14.6291 10.5199 14.8102 10.4378 14.9507 10.2735C15.0911 10.1092 15.1429 9.91992 15.1059 9.70563ZM12.5998 3.14849C12.5998 3.00563 12.5481 2.88421 12.4446 2.78421C12.3411 2.68421 12.2154 2.63421 12.0675 2.63421H4.97057C4.82271 2.63421 4.69704 2.68421 4.59354 2.78421C4.49004 2.88421 4.43829 3.00563 4.43829 3.14849C4.43829 3.29135 4.49004 3.41278 4.59354 3.51278C4.69704 3.61278 4.82271 3.66278 4.97057 3.66278H12.0675C12.2154 3.66278 12.3411 3.61278 12.4446 3.51278C12.5481 3.41278 12.5998 3.29135 12.5998 3.14849ZM17.0354 10.9163V17.3771H15.616V18.7485C15.616 19.1271 15.4774 19.4503 15.2002 19.7181C14.923 19.986 14.5884 20.1199 14.1966 20.1199C13.8048 20.1199 13.4703 19.986 13.1931 19.7181C12.9158 19.4503 12.7772 19.1271 12.7772 18.7485V17.3771H4.26087V18.7485C4.26087 19.1271 4.12226 19.4503 3.84503 19.7181C3.5678 19.986 3.23329 20.1199 2.84147 20.1199C2.44966 20.1199 2.11514 19.986 1.83792 19.7181C1.56069 19.4503 1.42208 19.1271 1.42208 18.7485V17.3771H0.00268555V10.9163C0.00268555 10.1163 0.095094 9.31992 0.279911 8.52706L1.42208 3.66278C1.48861 3.10563 1.84901 2.61635 2.50326 2.19492C3.15751 1.77349 4.00767 1.45564 5.05373 1.24135C6.0998 1.02706 7.2549 0.919922 8.51905 0.919922C9.7832 0.919922 10.9383 1.02706 11.9844 1.24135C13.0304 1.45564 13.8806 1.77349 14.5348 2.19492C15.1891 2.61635 15.5495 3.10563 15.616 3.66278L16.7804 8.52706C16.9504 9.25563 17.0354 10.0521 17.0354 10.9163Z"/>
</svg>
